REM DIRINDEX 1\2\6,1\2\7,1\2\8,1\2\9,1\3\10,1\3\11,1\4\12,1\4\13,1\4\14,1\5\15,1\5\16,1\5\17
REM DIRNAME folder01,folder02,folder03,folder04,folder05,folder06,folder07,folder08,folder09,folder10,folder11,folder12,folder13,folder14,folder15,folder16,folder17
TITLE ""
FILE "1400_2_sec10_0901_0915.mp3" MP3
  TRACK 01 AUDIO
    TITLE "0:"
    INDEX 01 00:00:00
  TRACK 02 AUDIO
    TITLE "12:cjc029_3404"
    INDEX 01 00:03:27
  TRACK 03 AUDIO
    TITLE "0:"
    INDEX 01 00:05:05
  TRACK 04 AUDIO
    TITLE "12:cjc029_3405"
    INDEX 01 00:05:56
  TRACK 05 AUDIO
    TITLE "0:"
    INDEX 01 00:07:03
  TRACK 06 AUDIO
    TITLE "13:cjc029_3406"
    INDEX 01 00:08:03
  TRACK 07 AUDIO
    TITLE "0:"
    INDEX 01 00:09:30
  TRACK 08 AUDIO
    TITLE "14:cjc029_3407"
    INDEX 01 00:09:32
  TRACK 09 AUDIO
    TITLE "0:"
    INDEX 01 00:10:35
  TRACK 10 AUDIO
    TITLE "13:cjc029_3408"
    INDEX 01 00:11:13
  TRACK 11 AUDIO
    TITLE "0:"
    INDEX 01 00:12:18
  TRACK 12 AUDIO
    TITLE "14:cjc029_3409"
    INDEX 01 00:12:22
  TRACK 13 AUDIO
    TITLE "0:"
    INDEX 01 00:16:32
  TRACK 14 AUDIO
    TITLE "13:cjc029_3410"
    INDEX 01 00:17:10
  TRACK 15 AUDIO
    TITLE "0:"
    INDEX 01 00:18:33
  TRACK 16 AUDIO
    TITLE "14:cjc029_3411"
    INDEX 01 00:18:37
  TRACK 17 AUDIO
    TITLE "0:"
    INDEX 01 00:20:51
  TRACK 18 AUDIO
    TITLE "13:cjc029_3412"
    INDEX 01 00:21:33
  TRACK 19 AUDIO
    TITLE "0:"
    INDEX 01 00:22:50
  TRACK 20 AUDIO
    TITLE "14:cjc029_3413"
    INDEX 01 00:22:58
  TRACK 21 AUDIO
    TITLE "0:"
    INDEX 01 00:25:41
  TRACK 22 AUDIO
    TITLE "13:cjc029_3414"
    INDEX 01 00:26:22
  TRACK 23 AUDIO
    TITLE "0:"
    INDEX 01 00:27:36
  TRACK 24 AUDIO
    TITLE "14:cjc029_3415"
    INDEX 01 00:27:43
  TRACK 25 AUDIO
    TITLE "0:"
    INDEX 01 00:30:08
  TRACK 26 AUDIO
    TITLE "13:cjc029_3416"
    INDEX 01 00:30:65
  TRACK 27 AUDIO
    TITLE "0:"
    INDEX 01 00:32:05
  TRACK 28 AUDIO
    TITLE "14:cjc029_3417"
    INDEX 01 00:32:09
  TRACK 29 AUDIO
    TITLE "0:"
    INDEX 01 00:33:17
  TRACK 30 AUDIO
    TITLE "13:cjc029_3418"
    INDEX 01 00:34:00
  TRACK 31 AUDIO
    TITLE "0:"
    INDEX 01 00:35:35
  TRACK 32 AUDIO
    TITLE "14:cjc029_3419"
    INDEX 01 00:35:43
  TRACK 33 AUDIO
    TITLE "0:"
    INDEX 01 00:36:66
  TRACK 34 AUDIO
    TITLE "13:cjc029_3420"
    INDEX 01 00:37:48
  TRACK 35 AUDIO
    TITLE "0:"
    INDEX 01 00:38:53
  TRACK 36 AUDIO
    TITLE "14:cjc029_3421"
    INDEX 01 00:38:59
  TRACK 37 AUDIO
    TITLE "0:"
    INDEX 01 00:43:27
  TRACK 38 AUDIO
    TITLE "13:cjc029_3422"
    INDEX 01 00:44:09
  TRACK 39 AUDIO
    TITLE "0:"
    INDEX 01 00:45:33
  TRACK 40 AUDIO
    TITLE "14:cjc029_3423"
    INDEX 01 00:45:37
  TRACK 41 AUDIO
    TITLE "0:"
    INDEX 01 00:47:48
  TRACK 42 AUDIO
    TITLE "13:cjc029_3424"
    INDEX 01 00:48:30
  TRACK 43 AUDIO
    TITLE "0:"
    INDEX 01 00:49:59
  TRACK 44 AUDIO
    TITLE "14:cjc029_3425"
    INDEX 01 00:49:63
  TRACK 45 AUDIO
    TITLE "0:"
    INDEX 01 00:53:29
  TRACK 46 AUDIO
    TITLE "13:cjc029_3426"
    INDEX 01 00:54:09
  TRACK 47 AUDIO
    TITLE "0:"
    INDEX 01 00:55:14
  TRACK 48 AUDIO
    TITLE "14:cjc029_3427"
    INDEX 01 00:55:20
  TRACK 49 AUDIO
    TITLE "0:"
    INDEX 01 00:59:47
  TRACK 50 AUDIO
    TITLE "13:cjc029_3428"
    INDEX 01 01:00:31
  TRACK 51 AUDIO
    TITLE "0:"
    INDEX 01 01:01:44
  TRACK 52 AUDIO
    TITLE "14:cjc029_3429"
    INDEX 01 01:01:50
  TRACK 53 AUDIO
    TITLE "0:"
    INDEX 01 01:04:68
  TRACK 54 AUDIO
    TITLE "13:cjc029_3430"
    INDEX 01 01:05:50
  TRACK 55 AUDIO
    TITLE "0:"
    INDEX 01 01:07:12
  TRACK 56 AUDIO
    TITLE "14:cjc029_3431"
    INDEX 01 01:07:15
  TRACK 57 AUDIO
    TITLE "0:"
    INDEX 01 01:08:36
  TRACK 58 AUDIO
    TITLE "13:cjc029_3432"
    INDEX 01 01:09:20
  TRACK 59 AUDIO
    TITLE "0:"
    INDEX 01 01:10:53
  TRACK 60 AUDIO
    TITLE "14:cjc029_3433"
    INDEX 01 01:10:57
  TRACK 61 AUDIO
    TITLE "0:"
    INDEX 01 01:13:32
  TRACK 62 AUDIO
    TITLE "13:cjc029_3434"
    INDEX 01 01:14:16
  TRACK 63 AUDIO
    TITLE "0:"
    INDEX 01 01:15:29
  TRACK 64 AUDIO
    TITLE "14:cjc029_3435"
    INDEX 01 01:15:35
  TRACK 65 AUDIO
    TITLE "0:"
    INDEX 01 01:19:27
